<?xml version="1.0" standalone="no"?>
<!DOCTYPE svg PUBLIC "-//W3C//DTD SVG 20010904//EN"
 "http://www.w3.org/TR/2001/REC-SVG-20010904/DTD/svg10.dtd">
<svg version="1.0" xmlns="http://www.w3.org/2000/svg"
 width="361.000000pt" height="361.000000pt" viewBox="0 0 361.000000 361.000000"
 preserveAspectRatio="xMidYMid meet">
<metadata>
Created by potrace 1.14, written by Peter Selinger 2001-2017
</metadata>
<g transform="translate(0.000000,361.000000) scale(0.100000,-0.100000)"
fill="#000000" stroke="none">
<path d="M1397 3342 c-75 -75 -137 -141 -137 -145 0 -5 56 -65 125 -133 l125
-124 0 -188 0 -187 381 -380 c209 -209 391 -396 403 -415 105 -163 41 -401
-139 -515 -27 -17 -66 -37 -85 -44 -88 -30 -206 -22 -282 19 -20 10 -210 194
-424 407 l-388 388 -188 1 -189 2 -124 123 c-68 68 -127 125 -132 126 -4 2
-71 -60 -147 -136 l-139 -140 189 -188 189 -189 180 1 180 1 65 -62 c36 -35
182 -180 325 -324 320 -322 380 -368 555 -421 115 -35 313 -33 430 4 136 43
242 107 340 205 244 246 306 604 155 901 -47 94 -80 131 -418 468 l-332 333
-1 177 c-1 98 -2 183 -3 189 -1 10 -126 138 -323 331 l-53 53 -138 -138z"/>
<path d="M3031 1608 c0 -546 0 -1003 -1 -1015 l0 -22 -1290 0 c-710 0 -1294
-2 -1299 -5 -4 -3 -7 -92 -7 -198 l1 -193 1306 -3 1306 -2 194 193 194 193 0
1019 0 1020 -202 3 -201 2 -1 -992z"/>
</g>
</svg>
